<svg xmlns="http://www.w3.org/2000/svg" viewBox="0 0 24 24" fill="currentColor">
  <path
    fill-rule="evenodd"
    clip-rule="evenodd"
    d="M12.0036 14.0035c2.4853 0 4.5-2.0148 4.5-4.5s-2.0147-4.5-4.5-4.5-4.5 2.0148-4.5 4.5 2.0147 4.5 4.5 4.5Zm0-1.9964c-1.3827 0-2.5036-1.1209-2.5036-2.5036 0-1.3827 1.1209-2.5036 2.5036-2.5036 1.3827 0 2.5036 1.1209 2.5036 2.5036 0 1.3827-1.1209 2.5036-2.5036 2.5036Z"
  />
  <path
    fill-rule="evenodd"
    clip-rule="evenodd"
    d="M21.272 11.5818C22.5649 5.78816 18.0052.00354 12 .00354 5.99649.00354 1.43639 5.7961 2.72816 11.5825c.99707 4.6996 5.02904 9.264 7.43544 11.6444a1.7524 1.7524 0 0 0 2.3454 0c2.4065-2.3805 6.4388-6.945 7.4356-11.6448ZM12 2.00354c4.7124 0 8.3368 4.58627 7.32 9.14266-.4884 2.1893-1.5841 4.1553-2.8699 5.9728-1.3437 1.8994-2.8672 3.5454-4.0202 4.686-.2513.2486-.6085.2486-.8598 0-1.153-1.1405-2.67631-2.7864-4.02001-4.6857-1.2859-1.8176-2.38125-3.7832-2.86999-5.9726C3.66438 6.59682 7.29012 2.00354 12 2.00354Z"
  />
</svg>







